<svg fill="currentColor" xmlns="http://www.w3.org/2000/svg" width="1672" height="1672" viewBox="0 0 1254 1254">
    <path d="M487.6 206.1c-41.9 3.7-81.2 22.8-110.6 53.5-14.6 15.3-15.7 16.9-82.7 124.9-19.8 31.9-37.8 61.1-40 65-10.5 18.2-17.7 40-20.8 63.5-1.8 12.9-2.1 159.7-.5 174.5 5.1 44.5 28.9 87.9 63.5 115.7 6.9 5.5 11.7 8.7 36 24 6.6 4.2 29.3 18.6 50.5 32 84.2 53.4 86.9 55 101.5 58.9 7 1.9 11.3 2.2 35.5 2.7 19.1.3 27.7.8 28.2 1.6.4.6.5 5.4.2 10.6-2 31.3 7.5 59 26.8 77.8 17 16.6 35.7 24.8 59.5 25.9 21.1 1 26.6-.4 75-19 32.6-12.6 40.3-16.2 51.4-24.3 8.5-6.3 200.8-198.1 211.3-210.9 29-35 46-70.5 53.9-112 1.9-10.4 2.1-15.2 2.4-93 .5-85.2.1-96.3-3.7-113.6-6.1-28.3-21.6-58.6-41.3-80.9-10.9-12.4-10.4-11.9-85.7-71.9-10.7-8.5-29.2-23.2-41-32.6-34.4-27.4-52.2-40.9-61.4-46.4-24.4-14.7-50.6-23.4-79.1-26.1-13.4-1.2-214.4-1.1-228.9.1m233.1 35c18.6 2.5 36.2 8.4 52.3 17.4 9.6 5.4 22 14.8 80.5 61 63.3 50 88.3 70.2 95.9 77.4 25.3 24.4 41 56 44.6 90.1 1.3 12.2 1.3 152.2 0 165.5-2.7 27.4-12.7 55.9-28.5 81-14.2 22.6-18 26.7-121.7 130.3C749.9 957.6 738.3 968.7 728 974c-9.5 4.8-72.1 27.9-78.8 29-27.3 4.5-53.7-11.3-63.9-38.2-1.3-3.4-1.7-9.8-2.2-30.3-.6-24.4-.8-26.3-3-31.3-2.7-5.9-7.4-10.5-14-13.6-4.3-1.9-6.9-2.1-37.1-2.6-31.3-.6-32.8-.7-39.5-3.1-4.8-1.7-19-10-44.5-26-20.6-13-51.7-32.5-69-43.4-49.7-31.2-56.1-35.6-67-46.3-5.3-5.4-12.5-13.5-16-18.2-7.6-10.4-18.1-31.5-21.5-43.4-5-17.6-5-17.8-4.9-104.6.1-88 0-86.5 5.6-106.9 4.1-15 7.7-22.3 25.3-50.6 6.2-9.9 19-30.6 28.4-46 9.5-15.4 19.5-31.4 22.1-35.5s12.8-20.3 22.5-36 20.2-31.6 23.2-35.3c12.5-15.2 30.6-29.2 49.3-38.1 11.5-5.4 30.1-11.2 40.1-12.4 10.8-1.4 227.8-1.5 237.6-.1M542.8 436.9c-11.5 3.8-22.1 12.9-27.2 23.4-1.4 2.9-6 18.2-10.1 34.2-9.5 36.4-27.2 103.3-29.1 110.2l-1.5 5.3h-25.7c-20.1 0-27.1.3-31.7 1.5-11.1 2.9-19.8 10.3-25.3 21.5-2.4 5-2.7 6.6-2.7 16.5 0 10 .3 11.6 2.8 17 3.5 7.6 9.5 13.8 17.2 17.8l6 3.2 45 .5c58.9.7 65.3.4 72.7-3.4 3.1-1.5 7.4-4.7 9.6-7 7.2-7.4 7.3-7.7 20.8-60.6 3-11.8 5.9-21.9 6.5-22.5.7-.7 21.1 19.3 67.2 65.7 58.1 58.6 66.9 67.1 72.2 69.6 13.9 6.8 28.3 6.8 42.1.1 6.4-3 15.5-12.3 18.7-18.9 1.4-3 6.9-22.4 12.2-43 18.3-72 21.2-83.1 22.1-84 .5-.5 8.8-1 18.4-1.2 16.8-.3 17.7-.4 23.7-3.2 14.5-6.7 21.8-20.1 21.8-40.1 0-9.3-.2-10.5-3.3-16.7-3.9-8-11.1-14.8-19.2-18.1-5.3-2.1-6.8-2.2-45.9-2.5-38.5-.3-40.8-.2-47.2 1.8-5.4 1.6-8 3.2-12.7 7.5-7.8 7.2-9.7 11.7-16.8 40.7-3.2 13.1-6.2 23.8-6.6 23.8-.3 0-22.2-21.7-48.4-48.3-88.4-89.2-82.9-83.9-91.8-88.3-7.4-3.6-8.6-3.9-18-4.1-7.8-.2-11.4.1-15.8 1.6m22.9 27c1.7.9 34.1 33 71.9 71.4 43.3 44 70.3 70.6 72.8 72 5.9 3 14.8 3 19.9-.2 7.3-4.5 8.1-6.4 16.9-41.2 6.4-25.1 8.7-32.9 10.5-34.7l2.2-2.2H798c24.2 0 38.8.4 40.1 1 5.9 3.2 6.4 16.4 1 23.2-1.9 2.3-2.3 2.3-24.4 2.8l-22.5.5-4.3 3c-7.6 5.3-5.4-1.4-26.5 82.5-7.5 30-14.3 55.7-15 57.2-4 7.7-15.2 11-23.6 6.9-2.7-1.3-9.2-7-16.8-14.8-38.6-39.5-121.9-123.1-124.6-125-7.3-5.2-18-5.3-25.5-.3-8.4 5.6-7.8 4-21.3 57-7.9 30.8-8.8 33.7-11.6 36.2l-3 2.8h-48.3c-46 0-48.3-.1-51.4-2-9.2-5.5-5.4-21.6 5.6-23.5 2.1-.3 16.4-.5 31.7-.3 27.3.3 28 .2 32.1-2 6-3.2 8.6-7.9 12.3-22.2 1.7-6.9 7.7-29.4 13.2-50s12.8-48.5 16.4-62c7.5-28.5 7.7-29 11.7-33 5.8-5.7 14.9-6.9 22.4-3.1"/>
</svg>
